<?xml version="1.0" encoding="UTF-8" standalone="no"?>
<!-- Created with Inkscape (http://www.inkscape.org/) -->

<svg
   version="1.1"
   id="svg828"
   width="3000"
   height="3000"
   viewBox="0 0 3000 3000"
   sodipodi:docname="api-bureau-logo.svg"
   inkscape:version="1.1.1 (3bf5ae0d25, 2021-09-20)"
   inkscape:export-filename="D:\Projects\GitHub\api-bureau\all-apis\api-bureau-logo.png"
   inkscape:export-xdpi="12.8"
   inkscape:export-ydpi="12.8"
   xmlns:inkscape="http://www.inkscape.org/namespaces/inkscape"
   xmlns:sodipodi="http://sodipodi.sourceforge.net/DTD/sodipodi-0.dtd"
   xmlns="http://www.w3.org/2000/svg"
   xmlns:svg="http://www.w3.org/2000/svg">
  <defs
     id="defs832" />
  <sodipodi:namedview
     id="namedview830"
     pagecolor="#ffffff"
     bordercolor="#666666"
     borderopacity="1.0"
     inkscape:pageshadow="2"
     inkscape:pageopacity="0.0"
     inkscape:pagecheckerboard="0"
     showgrid="false"
     inkscape:zoom="0.29590216"
     inkscape:cx="3333.8722"
     inkscape:cy="1248.7236"
     inkscape:window-width="3840"
     inkscape:window-height="2081"
     inkscape:window-x="3831"
     inkscape:window-y="-9"
     inkscape:window-maximized="1"
     inkscape:current-layer="g1061" />
  <g
     inkscape:groupmode="layer"
     inkscape:label="Image"
     id="g834">
    <g
       inkscape:groupmode="layer"
       id="layer3"
       inkscape:label="Layer 3"
       style="display:none"
       sodipodi:insensitive="true">
      <circle
         style="fill:#ff0000;fill-rule:evenodd"
         id="path2048"
         cx="1498.3241"
         cy="1498.8063"
         r="1485.2882" />
    </g>
    <g
       inkscape:groupmode="layer"
       id="layer2"
       inkscape:label="Title 2"
       style="display:none">
      <g
         id="SvgjsG4022"
         featureKey="nameFeature-0"
         transform="matrix(14.638661,0,0,14.638661,494.53353,2157.271)"
         fill="#323232">
        <path
           d="M 6.76,36.4 6.24,40 H 0.4 L 5.64,11 h 6.2 l 5.24,29 H 11.24 L 10.72,36.4 Z M 7.4,31.8 h 2.68 L 8.76,21.52 Z M 24.965,16.08 v 11.4 h 2.88 c 0.24,0 0.39332,-0.04668 0.46,-0.14 0.06668,-0.09332 0.1,-0.24664 0.1,-0.45996 v -10.24 c 0,-0.37332 -0.17332,-0.56 -0.52,-0.56 h -2.92 z M 30.605,11 c 1.1467,0 2.0067,0.31996 2.58,0.95996 0.5733,0.64 0.86,1.4933 0.86,2.56 v 13.88 c 0,0.56 -0.06,1.0733 -0.18,1.54 -0.12,0.4667 -0.34,0.87336 -0.66,1.22 -0.32,0.34664 -0.74668,0.62 -1.28,0.82 -0.53332,0.2 -1.2,0.3 -2,0.3 h -4.96 v 7.72 h -5.76 v -29 h 11.4 z m 6.245,0 h 5.8 v 29 h -5.8 z m 20.01,5.08 3.9e-5,7.6 h 2.72 c 0.21332,0 0.38664,-0.06 0.51996,-0.18 0.13332,-0.12 0.2,-0.31332 0.2,-0.58 v -6.28 c 0,-0.37332 -0.17332,-0.56 -0.52,-0.56 z m 3.52,12.84 c 0,-0.32 -0.08,-0.54004 -0.24,-0.66004 -0.16,-0.12 -0.37332,-0.18 -0.64,-0.18 h -2.64 v 6.84 h 2.92 c 0.24,0 0.4,-0.04668 0.48,-0.14 0.08,-0.09332 0.12,-0.24664 0.12,-0.45996 z m 5.48,-6.44 c 0,0.72 -0.14,1.34 -0.42,1.86 -0.28,0.52 -0.80668,0.88668 -1.58,1.1 0.8,0.05332 1.38,0.33332 1.74,0.84 0.36,0.50668 0.54,1.08 0.54,1.72 v 7.52 c 0,1.6 -0.33332,2.7467 -1,3.44 C 64.47332,39.6533 63.3,40 61.62,40 H 51.1 V 11 h 11.32 c 1.1467,0 2.0067,0.32 2.58,0.96 0.5733,0.64 0.86,1.4933 0.86,2.56 z M 73.585,40 c -1.68,0 -2.8533,-0.34668 -3.52,-1.04 -0.6667,-0.69332 -1,-1.84 -1,-3.44 V 11 h 5.92 v 23.28 c 0,0.21332 0.03332,0.37332 0.1,0.48 0.06668,0.10668 0.22,0.16 0.46,0.16 h 2.04 c 0.24,0 0.39332,-0.05332 0.46,-0.16 0.06668,-0.10668 0.1,-0.26668 0.1,-0.48 V 11 h 5.92 v 24.52 c 0,1.6 -0.33332,2.7467 -1,3.44 -0.66668,0.6933 -1.84,1.04 -3.52,1.04 z M 92.79,16.08 v 10 h 2.84 c 0.37332,0 0.56,-0.2 0.56,-0.6 v -8.8 c 0,-0.4 -0.18668,-0.6 -0.56,-0.6 z m 9.12,12.12 c 0,0.64 -0.22,1.2267 -0.66,1.76 -0.44,0.5333 -1.0867,0.8 -1.94,0.8 l 3.04,9.24 h -6 l -2.8,-9.24 H 92.79 V 40 h -5.8 V 11 h 11 c 1.36,0 2.3533,0.34 2.98,1.02 0.6267,0.68 0.94,1.5933 0.94,2.74 z M 104.915,11 h 11.28 l 1,5.4 h -6.32 v 6.88 h 4.8 v 5 h -4.8 v 6.32 h 6.08 l -1,5.4 h -11.04 z m 20.125,25.4 -0.52,3.6 h -5.84 l 5.24,-29 h 6.2 l 5.24,29 h -5.84 L 129,36.4 Z m 0.64,-4.6 h 2.68 l -1.32,-10.28 z m 16.045,8.2 c -1.68,0 -2.8533,-0.34668 -3.52,-1.04 -0.6667,-0.69332 -1,-1.84 -1,-3.44 V 11 h 5.92 v 23.28 c 0,0.21332 0.0333,0.37332 0.1,0.48 0.0667,0.10668 0.22,0.16 0.46,0.16 h 2.04 c 0.24,0 0.39332,-0.05332 0.46,-0.16 0.0667,-0.10668 0.1,-0.26668 0.1,-0.48 V 11 h 5.92 v 24.52 c 0,1.6 -0.33332,2.7467 -1,3.44 -0.66668,0.6933 -1.84,1.04 -3.52,1.04 z"
           id="path1058" />
      </g>
    </g>
    <g
       transform="matrix(11.111111,0,0,11.111111,-876.46102,-368.20889)"
       id="g1061">
      <defs
         id="SvgjsDefs4019" />
      <g
         id="SvgjsG4021"
         featureKey="symbolFeature-0"
         transform="matrix(0.89841431,0,0,0.89841431,214.67001,60.848576)"
         fill="#323232">
        <g
           id="g1055">
          <g
             id="g1013">
            <polygon
               points="87.151,61.709 73.593,53.881 60.034,61.71 73.593,69.538 "
               id="polygon1007" />
            <polygon
               points="59.687,62.311 59.687,77.968 73.246,85.796 73.246,70.14 "
               id="polygon1009" />
            <polygon
               points="73.939,85.796 87.5,77.968 87.5,62.311 73.939,70.14 "
               id="polygon1011" />
          </g>
          <g
             id="g1021">
            <polygon
               points="58.559,61.709 45,53.881 31.44,61.71 45,69.538 "
               id="polygon1015" />
            <polygon
               points="31.094,62.311 31.094,77.968 44.653,85.796 44.653,70.14 "
               id="polygon1017" />
            <polygon
               points="45.347,85.796 58.906,77.968 58.906,62.311 45.347,70.14 "
               id="polygon1019" />
          </g>
          <g
             id="g1029">
            <polygon
               points="58.559,12.033 45,4.204 31.44,12.033 45,19.861 "
               id="polygon1023" />
            <polygon
               points="31.094,12.634 31.094,28.291 44.653,36.12 44.653,20.462 "
               id="polygon1025" />
            <polygon
               points="45.347,36.12 58.906,28.291 58.906,12.634 45.347,20.462 "
               id="polygon1027" />
          </g>
          <g
             id="g1037">
            <polygon
               points="29.966,61.709 16.407,53.881 2.847,61.71 16.407,69.538 "
               id="polygon1031" />
            <polygon
               points="2.5,62.311 2.5,77.968 16.06,85.796 16.06,70.14 "
               id="polygon1033" />
            <polygon
               points="16.753,85.796 30.313,77.968 30.313,62.311 16.753,70.14 "
               id="polygon1035" />
          </g>
          <g
             id="g1045">
            <polygon
               points="44.276,36.871 30.717,29.042 17.157,36.872 30.717,44.7 "
               id="polygon1039" />
            <polygon
               points="16.81,37.473 16.81,53.129 30.37,60.958 30.37,45.301 "
               id="polygon1041" />
            <polygon
               points="31.063,60.958 44.623,53.129 44.623,37.473 31.063,45.301 "
               id="polygon1043" />
          </g>
          <g
             id="g1053">
            <polygon
               points="72.841,36.871 59.282,29.042 45.723,36.872 59.282,44.7 "
               id="polygon1047" />
            <polygon
               points="45.375,37.473 45.375,53.129 58.936,60.958 58.936,45.301 "
               id="polygon1049" />
            <polygon
               points="59.629,60.958 73.188,53.129 73.188,37.473 59.629,45.301 "
               id="polygon1051" />
          </g>
        </g>
      </g>
      <g
         transform="matrix(1.4364482,0,0,1.4364482,-5.8092622,131.75017)"
         id="g1244">
        <defs
           id="SvgjsDefs1121" />
        <g
           id="SvgjsG1122"
           featureKey="v37d4h-0"
           transform="matrix(0.69620253,0,0,0.69620253,118.13013,-2.1801712)"
           fill="#111111">
          <title
             id="title1216">Bureau</title>
          <rect
             x="40.470001"
             y="25.5"
             width="19.08"
             height="7.6799998"
             id="rect1218" />
          <polygon
             points="80,24.5 85,24.5 89.5,24.5 89.5,20.5 10.5,20.5 10.5,24.5 15,24.5 20,24.5 20.03,24.5 39.97,24.5 60.05,24.5 "
             id="polygon1220" />
          <rect
             x="15.5"
             y="25.5"
             width="4"
             height="54"
             id="rect1222" />
          <polygon
             points="84.5,79.5 84.5,25.5 80.5,25.5 80.5,60.18 80.5,79.5 "
             id="polygon1224" />
          <path
             d="m 79.5,25.5 h -19 v 34.18 h 19 z m -3.6,30 A 0.5,0.5 0 0 1 75.4,56 H 64.65 a 0.51,0.51 0 0 1 -0.5,-0.5 v -6 A 0.51,0.51 0 0 1 64.65,49 H 75.4 a 0.5,0.5 0 0 1 0.5,0.5 z m 0,-10.15 a 0.5,0.5 0 0 1 -0.5,0.5 H 64.65 a 0.51,0.51 0 0 1 -0.5,-0.5 v -6 a 0.5,0.5 0 0 1 0.5,-0.5 H 75.4 a 0.5,0.5 0 0 1 0.5,0.5 z m 0,-10.15 a 0.5,0.5 0 0 1 -0.5,0.5 H 64.65 a 0.5,0.5 0 0 1 -0.5,-0.5 v -6 a 0.5,0.5 0 0 1 0.5,-0.5 H 75.4 a 0.5,0.5 0 0 1 0.5,0.5 z"
             id="path1226" />
          <rect
             x="65.150002"
             y="29.639999"
             width="9.75"
             height="5.0100002"
             id="rect1228" />
          <rect
             x="65.150002"
             y="39.790001"
             width="9.75"
             height="5.0100002"
             id="rect1230" />
          <rect
             x="65.150002"
             y="49.93"
             width="9.75"
             height="5.0100002"
             id="rect1232" />
          <path
             d="m 20.53,74.5 h 18.94 v -49 H 20.53 Z m 3.6,-45.36 a 0.5,0.5 0 0 1 0.5,-0.5 h 10.75 a 0.5,0.5 0 0 1 0.5,0.5 v 6 a 0.5,0.5 0 0 1 -0.5,0.5 H 24.63 a 0.5,0.5 0 0 1 -0.5,-0.5 z m 0,10.86 a 0.5,0.5 0 0 1 0.5,-0.5 h 10.75 a 0.5,0.5 0 0 1 0.5,0.5 v 30 a 0.5,0.5 0 0 1 -0.5,0.5 H 24.63 A 0.5,0.5 0 0 1 24.13,70 Z"
             id="path1234" />
          <rect
             x="25.129999"
             y="29.639999"
             width="9.75"
             height="5.0100002"
             id="rect1236" />
          <rect
             x="25.129999"
             y="40.5"
             width="9.75"
             height="29"
             id="rect1238" />
        </g>
        <g
           id="SvgjsG1123"
           featureKey="UxBHKT-0"
           transform="matrix(0.87077676,0,0,0.87077676,199.69139,21.068992)"
           fill="#111111" />
      </g>
      <g
         transform="matrix(1.0000129,0,0,1.0000129,381.67467,-18.832786)"
         id="g1557">
        <defs
           id="SvgjsDefs2488" />
        <g
           id="SvgjsG2490"
           featureKey="symbolFeature-0"
           transform="matrix(0.72001703,0,0,0.72001703,-246.21459,80.774674)"
           fill="#000000">
          <path
             d="m 88.895,11.105 c -14.807,-14.807 -38.812,-14.807 -53.619,0 -14.807,14.806 -14.807,38.812 0,53.619 14.807,14.807 38.812,14.807 53.619,0 14.807,-14.807 14.807,-38.812 0,-53.619 z m -4.233,49.387 c -12.469,12.468 -32.684,12.468 -45.153,0 -12.468,-12.469 -12.468,-32.685 0,-45.153 12.469,-12.468 32.685,-12.469 45.153,0 12.468,12.469 12.468,32.683 0,45.153 z"
             id="path1549" />
          <rect
             x="12.357"
             y="61.701"
             transform="matrix(0.7071,0.7071,-0.7071,0.7071,63.1103,10.9445)"
             width="11.973"
             height="39.91"
             id="rect1551" />
        </g>
      </g>
    </g>
    <g
       inkscape:groupmode="layer"
       id="layer1"
       inkscape:label="Title 1">
      <path
         d="m 593.20352,2322.2683 q -7.09591,9.7103 -24.46264,17.3666 -17.36653,7.6562 -37.90754,7.6562 -31.74534,0 -55.08769,-14.192 -23.34215,-14.1919 -35.66677,-38.6546 -12.32459,-24.4626 -12.32459,-54.3407 0,-29.8778 12.32459,-54.3405 12.32462,-24.4625 35.66677,-38.6546 23.34235,-14.1919 55.08769,-14.1919 21.28794,0 37.53418,7.2827 16.24603,7.2827 24.836,18.4869 v -21.2881 h 55.27427 v 205.4112 H 593.20352 Z M 580.13198,2198.088 q -15.31252,-16.2461 -41.08224,-16.2461 -26.14329,0 -41.26901,16.2461 -15.12576,16.2462 -15.12576,42.0158 0,25.0229 15.49933,41.4559 15.49909,16.4329 40.89544,16.4329 26.14329,0 41.26881,-15.4994 15.12575,-15.4992 15.12575,-42.3894 0,-25.7696 -15.31232,-42.0158 z m 178.89436,-40.1485 q 7.09589,-9.7103 24.46262,-17.3667 17.36654,-7.656 37.90753,-7.656 31.74534,0 55.08751,14.1919 23.34235,14.1921 35.66695,38.6546 12.32461,24.4627 12.32461,54.3405 0,29.8781 -12.32461,54.3407 -12.3246,24.4627 -35.66695,38.6546 -23.34217,14.192 -55.08751,14.192 -21.28794,0 -37.53418,-7.2827 -16.24602,-7.2828 -24.83597,-18.487 v 87.393 h -55.27429 v -271.5161 h 55.27429 z m 13.07152,124.1803 q 15.31252,16.2461 41.08223,16.2461 26.14329,0 41.26902,-16.2461 15.12574,-16.2461 15.12574,-42.016 0,-25.0226 -15.49931,-41.4555 -15.49908,-16.433 -40.89545,-16.433 -26.14328,0 -41.26902,15.4993 -15.12554,15.4992 -15.12554,42.3892 0,25.7699 15.31233,42.016 z m 250.22804,-175.1596 q -8.9634,8.7766 -21.6615,8.7766 -13.07148,0 -22.22162,-8.7766 -9.15034,-8.7768 -9.15034,-21.4748 0,-12.3246 9.15034,-21.1014 9.15014,-8.7766 22.22162,-8.7766 12.6981,0 21.6615,8.7766 8.9633,8.7768 8.9633,21.1014 0,12.698 -8.9633,21.4748 z m -49.67216,30.8117 h 56.02136 v 205.0376 h -56.02136 z m 223.33806,205.0376 v -282.3469 h 55.2741 v 98.2238 q 8.5898,-11.2042 24.8361,-18.4869 16.2461,-7.2827 37.5343,-7.2827 31.7452,0 55.0873,14.1919 23.3423,14.1921 35.6668,38.6546 12.3249,24.4627 12.3249,54.3405 0,29.8781 -12.3249,54.3407 -12.3245,24.4627 -35.6668,38.6546 -23.3421,14.192 -55.0873,14.192 -20.5412,0 -37.9078,-7.6562 -17.3667,-7.6563 -24.4626,-17.3666 v 20.5412 z m 68.159,-60.3163 q 15.1257,15.4994 41.2689,15.4994 25.3963,0 40.8955,-16.4329 15.4992,-16.433 15.4992,-41.4559 0,-25.7696 -15.1258,-42.0158 -15.1257,-16.2461 -41.2689,-16.2461 -25.7696,0 -41.0821,16.2461 -15.3127,16.2462 -15.3127,42.0158 0,26.8902 15.1259,42.3894 z m 197.755,-22.9686 v -121.3793 h 56.3945 v 121.3793 q 0,22.0351 11.0175,31.5586 11.0175,9.5236 28.9441,9.5236 15.6862,0 28.0107,-12.1381 12.3249,-12.1376 11.2044,-41.6422 v -108.6812 h 56.0213 v 204.6642 h -56.0213 v -17.5533 q -10.0838,10.4573 -24.4626,16.2462 -14.3788,5.7887 -30.4383,5.7887 -80.6703,0 -80.6703,-87.7665 z m 343.9703,-68.5326 q -16.0596,3.9213 -29.5048,18.487 -13.4451,14.5655 -13.4451,42.5761 v 90.7544 h -55.6477 v -205.4112 h 55.6477 v 27.2637 q 13.8186,-18.3003 33.7994,-24.8361 19.9811,-6.5358 36.414,-6.1621 v 54.5272 q -11.2044,-1.1199 -27.2635,2.801 z m 107.0003,146.9623 q -25.5831,-10.0838 -43.8834,-34.173 -18.3003,-24.0891 -18.3003,-62.9305 0,-38.8412 18.4871,-62.7436 18.4871,-23.9025 44.2568,-33.9863 25.7697,-10.0838 48.925,-10.0838 26.8903,0 51.1661,11.9511 24.2759,11.9513 39.7752,35.1067 15.4991,23.1555 16.246,54.9008 0,9.7103 -0.3733,16.8064 -0.3734,7.096 -0.7465,8.9634 h -162.0883 q 4.4818,21.6616 22.4087,29.5045 17.9266,7.8429 33.6126,7.8429 20.1676,0 32.1187,-7.2826 11.9514,-7.2829 20.5412,-16.6198 l 43.3231,25.0228 q -35.1065,47.8048 -95.983,47.8048 -23.9025,0 -49.4853,-10.0838 z m 11.391,-143.6011 q -14.5657,11.3909 -16.4329,27.8239 h 102.7054 q -1.1197,-9.7103 -7.4694,-18.6737 -6.3492,-8.9634 -16.9932,-14.7523 -10.6439,-5.7888 -24.089,-5.7888 -23.1553,0 -37.7209,11.3909 z m 346.211,127.9151 q -7.0961,9.7103 -24.4627,17.3666 -17.3666,7.6562 -37.9075,7.6562 -31.7456,0 -55.0875,-14.192 -23.3423,-14.1919 -35.6671,-38.6546 -12.3244,-24.4626 -12.3244,-54.3407 0,-29.8778 12.3244,-54.3405 12.3248,-24.4625 35.6671,-38.6546 23.3419,-14.1919 55.0875,-14.1919 21.2879,0 37.5341,7.2827 16.2461,7.2827 24.8361,18.4869 v -21.2881 h 55.2743 v 205.4112 h -55.2743 z m -13.0716,-124.1803 q -15.3126,-16.2461 -41.0823,-16.2461 -26.1432,0 -41.2688,16.2461 -15.126,16.2462 -15.126,42.0158 0,25.0229 15.4995,41.4559 15.499,16.4329 40.8953,16.4329 26.1432,0 41.2691,-15.4994 15.1256,-15.4992 15.1256,-42.3894 0,-25.7696 -15.3124,-42.0158 z m 123.2465,61.4366 v -121.3793 h 56.3948 v 121.3793 q 0,22.0351 11.0175,31.5586 11.0175,9.5236 28.9441,9.5236 15.6861,0 28.0108,-12.1381 12.3246,-12.1376 11.2041,-41.6422 v -108.6812 h 56.0211 v 204.6642 h -56.0211 v -17.5533 q -10.0836,10.4573 -24.4624,16.2462 -14.3788,5.7887 -30.4384,5.7887 -80.6705,0 -80.6705,-87.7665 z"
         id="path1241"
         style="stroke-width:18.6737" />
    </g>
  </g>
</svg>
